<svg id="Layer_1" data-name="Layer 1" xmlns="http://www.w3.org/2000/svg" viewBox="0 0 54.54 40.89"><defs><style>.cls-1{fill:#2b3990;opacity:0.14;}.cls-2{fill:#fff;}.cls-3,.cls-6{fill:none;}.cls-3,.cls-4,.cls-5,.cls-6,.cls-8{stroke:#231f20;stroke-miterlimit:10;}.cls-4{fill:#59d39f;}.cls-5,.cls-7{fill:#231f20;}.cls-6{stroke-width:0.75px;}.cls-8{fill:#45c6e9;}</style></defs><ellipse class="cls-1" cx="13.83" cy="37.88" rx="8.93" ry="3.01"/><path class="cls-2" d="M55,61.69c0,4.35-3.31,8.39-3.31,8.39a47,47,0,0,1-4.13,4.33l-4,3.55a3.43,3.43,0,0,1-4.46,0L35.3,74.47a48.25,48.25,0,0,1-4.14-4.32s-3.38-4.08-3.38-8.46a13.63,13.63,0,0,1,27.25,0Z" transform="translate(-27.28 -41.72)"/><path class="cls-3" d="M55,61.69c0,4.35-3.31,8.39-3.31,8.39a47,47,0,0,1-4.13,4.33l-4,3.55a3.43,3.43,0,0,1-4.46,0L35.3,74.47a48.25,48.25,0,0,1-4.14-4.32s-3.38-4.08-3.38-8.46a13.63,13.63,0,0,1,27.25,0Z" transform="translate(-27.28 -41.72)"/><ellipse class="cls-4" cx="14.13" cy="19.09" rx="8.64" ry="8.3"/><ellipse class="cls-5" cx="10.65" cy="16.45" rx="0.7" ry="1.18"/><line class="cls-6" x1="16.07" y1="16.5" x2="17.96" y2="15.76"/><line class="cls-6" x1="16.23" y1="16.43" x2="17.86" y2="17.34"/><path class="cls-7" d="M44.27,62.18a2.88,2.88,0,1,1-5.73,0" transform="translate(-27.28 -41.72)"/><ellipse class="cls-1" cx="38.99" cy="35.99" rx="11.13" ry="3.46"/><path class="cls-2" d="M81.32,57.54c0,4.9-3.88,9.72-3.88,9.72a45.57,45.57,0,0,1-4.09,4.36l-4.87,4.46a3.33,3.33,0,0,1-4.42,0l-4.79-4.39a49.72,49.72,0,0,1-4.11-4.35s-3.95-4.87-3.95-9.8a15.06,15.06,0,1,1,30.11,0Z" transform="translate(-27.28 -41.72)"/><path class="cls-3" d="M81.32,57.54c0,4.9-3.88,9.72-3.88,9.72a45.57,45.57,0,0,1-4.09,4.36l-4.87,4.46a3.33,3.33,0,0,1-4.42,0l-4.79-4.39a49.72,49.72,0,0,1-4.11-4.35s-3.95-4.87-3.95-9.8a15.06,15.06,0,1,1,30.11,0Z" transform="translate(-27.28 -41.72)"/><ellipse class="cls-8" cx="38.99" cy="14.61" rx="10.14" ry="9.8"/><ellipse class="cls-5" cx="34.93" cy="10.78" rx="1.2" ry="1.68"/><path class="cls-7" d="M69.13,57.73a2.88,2.88,0,1,1-5.73,0" transform="translate(-27.28 -41.72)"/><ellipse class="cls-5" cx="41.85" cy="11.96" rx="0.7" ry="1.18"/></svg>